<svg xmlns="http://www.w3.org/2000/svg" viewBox="0 0 900 1280">
  <rect width="900" height="1280" fill="#f1eee7"/>
  <rect x="42" y="42" width="816" height="500" fill="#101827"/>
  <path d="M130 480 380 170h280l120 310Z" fill="#2c4058"/>
  <path d="M120 480h660v62H120z" fill="#060a12"/>
  <path d="M402 220h72v228h-72zM530 240h62v208h-62z" fill="#0d1320"/>
  <g fill="#ffd166"><rect x="418" y="260" width="18" height="32"/><rect x="552" y="300" width="18" height="32"/></g>
  <rect x="42" y="590" width="392" height="278" fill="#ffffff"/>
  <path d="M130 818c18-118 160-160 220-36" stroke="#d4334b" stroke-width="32" fill="none"/>
  <text x="92" y="650" font-family="Microsoft YaHei, sans-serif" font-size="31" font-weight="800" fill="#111">塔台在雨里发光。</text>
  <rect x="474" y="590" width="384" height="278" fill="#f7c45f"/>
  <path d="M560 704h210" stroke="#111" stroke-width="18"/>
  <path d="M560 760h150" stroke="#111" stroke-width="18"/>
  <text x="518" y="838" font-family="Microsoft YaHei, sans-serif" font-size="28" font-weight="800" fill="#111">投递编号：0000</text>
  <rect x="42" y="916" width="816" height="312" fill="#17314c"/>
  <path d="M236 1124h432" stroke="#8be9df" stroke-width="24"/>
  <path d="M356 1060h188l-38 116H394z" fill="#f4f1ea"/>
  <text x="86" y="990" font-family="Microsoft YaHei, sans-serif" font-size="34" font-weight="800" fill="#fff4df">岚决定去旧港口找答案。</text>
</svg>
