<svg xmlns="http://www.w3.org/2000/svg" viewBox="0 0 720 960" role="img" aria-labelledby="title desc">
  <title id="title">星港夜航封面</title>
  <desc id="desc">漂浮城市夜景中的漫画封面</desc>
  <defs>
    <linearGradient id="sky" x1="0" x2="1" y1="0" y2="1">
      <stop offset="0" stop-color="#111827"/>
      <stop offset="0.45" stop-color="#17314c"/>
      <stop offset="1" stop-color="#f15946"/>
    </linearGradient>
    <linearGradient id="beam" x1="0" x2="0" y1="0" y2="1">
      <stop offset="0" stop-color="#8be9df" stop-opacity=".9"/>
      <stop offset="1" stop-color="#8be9df" stop-opacity="0"/>
    </linearGradient>
  </defs>
  <rect width="720" height="960" fill="url(#sky)"/>
  <circle cx="582" cy="150" r="64" fill="#f7d889"/>
  <g fill="#f8f2d4">
    <circle cx="110" cy="96" r="3"/><circle cx="216" cy="150" r="2"/><circle cx="416" cy="82" r="3"/>
    <circle cx="628" cy="300" r="2"/><circle cx="78" cy="280" r="2"/><circle cx="340" cy="220" r="2"/>
  </g>
  <path d="M110 530 260 350h250l112 180Z" fill="#26384d"/>
  <path d="M148 518h430l-48 240H198Z" fill="#172235"/>
  <path d="M222 410h72v260h-72zM342 388h92v282h-92zM476 432h70v238h-70z" fill="#0f1726"/>
  <g fill="#ffd166">
    <rect x="238" y="448" width="18" height="28"/><rect x="270" y="500" width="18" height="28"/>
    <rect x="368" y="434" width="20" height="32"/><rect x="402" y="520" width="20" height="32"/>
    <rect x="492" y="484" width="18" height="28"/>
  </g>
  <path d="M58 720c145-58 290-62 604 0v240H58z" fill="#0c111b"/>
  <path d="M0 644c178 48 362 50 720 0v316H0z" fill="#111827" opacity=".78"/>
  <path d="M320 310h84l-44 420z" fill="url(#beam)" opacity=".6"/>
  <g transform="translate(280 590)">
    <path d="M58 0c38 34 48 112 18 166H24C-10 102 0 32 58 0Z" fill="#f4f1ea"/>
    <path d="M32 58h54l16 122H16Z" fill="#d4334b"/>
    <path d="M42 30c12-36 52-28 57 4 4 30-20 46-50 42-30-4-44-20-34-42 8 13 16 18 27-4Z" fill="#1b1b1d"/>
  </g>
  <text x="58" y="832" fill="#fff7df" font-family="Microsoft YaHei, sans-serif" font-size="78" font-weight="900">星港夜航</text>
  <text x="62" y="886" fill="#8be9df" font-family="Microsoft YaHei, sans-serif" font-size="28" font-weight="700">STAR HARBOR EXPRESS</text>
</svg>
